<svg width="121" height="129" viewBox="0 0 121 129" fill="none" xmlns="http://www.w3.org/2000/svg">
<path d="M29.2745 10.0204L28.1619 58.3835C27.9079 69.4262 36.6539 78.5841 47.6966 78.8381L105.057 80.1577L105.928 42.2918C106.43 20.4824 89.1568 2.39556 67.3474 1.89383L38.4791 1.22972C33.5098 1.11541 29.3888 5.0511 29.2745 10.0204Z" fill="#0E2332" stroke="#FF8000" stroke-width="2"/>
<path d="M13.5953 18.8399L12.9312 47.7082C12.4295 69.5176 29.7028 87.6044 51.5123 88.1062L89.3782 88.9773L90.2493 51.1114C90.751 29.3019 73.4776 11.2151 51.6682 10.7134L22.7999 10.0493C17.8306 9.93495 13.7096 13.8707 13.5953 18.8399Z" fill="#FF8000" stroke="#F2F2F2" stroke-width="2"/>
<path d="M19.9793 128.82C19.8527 128.48 19.7327 128.153 19.6193 127.84C19.506 127.527 19.396 127.22 19.2893 126.92H15.9193C15.806 127.22 15.6927 127.527 15.5793 127.84C15.466 128.153 15.3493 128.48 15.2293 128.82H14.5193C14.786 128.1 15.036 127.43 15.2693 126.81C15.5027 126.183 15.7293 125.593 15.9493 125.04C16.176 124.48 16.3993 123.943 16.6193 123.43C16.8393 122.917 17.0727 122.403 17.3193 121.89H17.9193C18.166 122.403 18.3993 122.917 18.6193 123.43C18.8393 123.943 19.0593 124.48 19.2793 125.04C19.506 125.593 19.736 126.183 19.9693 126.81C20.2027 127.43 20.456 128.1 20.7293 128.82H19.9793ZM17.5993 122.67C17.346 123.243 17.0993 123.827 16.8593 124.42C16.626 125.013 16.3827 125.653 16.1293 126.34H19.0793C18.826 125.653 18.5793 125.013 18.3393 124.42C18.0993 123.827 17.8527 123.243 17.5993 122.67Z" fill="#7A8D99"/>
<path d="M21.6856 123.83C21.8789 123.777 22.1389 123.717 22.4656 123.65C22.7922 123.583 23.1922 123.55 23.6656 123.55C24.0589 123.55 24.3856 123.607 24.6456 123.72C24.9122 123.833 25.1222 123.997 25.2756 124.21C25.4356 124.417 25.5489 124.667 25.6156 124.96C25.6823 125.253 25.7156 125.577 25.7156 125.93V128.82H25.0656V126.14C25.0656 125.773 25.0389 125.463 24.9856 125.21C24.9389 124.957 24.8556 124.75 24.7356 124.59C24.6222 124.43 24.4689 124.317 24.2756 124.25C24.0889 124.177 23.8522 124.14 23.5656 124.14C23.2589 124.14 22.9922 124.157 22.7656 124.19C22.5456 124.223 22.4022 124.253 22.3356 124.28V128.82H21.6856V123.83Z" fill="#7A8D99"/>
<path d="M29.0089 128.35C29.2623 128.35 29.4823 128.343 29.6689 128.33C29.8623 128.31 30.0256 128.287 30.1589 128.26V126.44C30.0856 126.407 29.9689 126.373 29.8089 126.34C29.6489 126.3 29.4289 126.28 29.1489 126.28C28.9889 126.28 28.8223 126.293 28.6489 126.32C28.4756 126.34 28.3156 126.39 28.1689 126.47C28.0223 126.543 27.9023 126.647 27.8089 126.78C27.7156 126.913 27.6689 127.09 27.6689 127.31C27.6689 127.503 27.6989 127.667 27.7589 127.8C27.8256 127.933 27.9156 128.04 28.0289 128.12C28.1489 128.2 28.2889 128.26 28.4489 128.3C28.6156 128.333 28.8023 128.35 29.0089 128.35ZM28.9489 123.53C29.2889 123.53 29.5756 123.58 29.8089 123.68C30.0489 123.773 30.2423 123.907 30.3889 124.08C30.5356 124.247 30.6423 124.447 30.7089 124.68C30.7756 124.913 30.8089 125.167 30.8089 125.44V128.7C30.7423 128.72 30.6456 128.743 30.5189 128.77C30.3923 128.79 30.2456 128.813 30.0789 128.84C29.9123 128.867 29.7256 128.887 29.5189 128.9C29.3189 128.92 29.1123 128.93 28.8989 128.93C28.6256 128.93 28.3723 128.9 28.1389 128.84C27.9123 128.78 27.7123 128.687 27.5389 128.56C27.3723 128.427 27.2389 128.26 27.1389 128.06C27.0456 127.853 26.9989 127.603 26.9989 127.31C26.9989 127.03 27.0523 126.79 27.1589 126.59C27.2656 126.39 27.4156 126.227 27.6089 126.1C27.8023 125.967 28.0323 125.87 28.2989 125.81C28.5656 125.75 28.8556 125.72 29.1689 125.72C29.2623 125.72 29.3589 125.727 29.4589 125.74C29.5656 125.747 29.6656 125.76 29.7589 125.78C29.8589 125.793 29.9423 125.81 30.0089 125.83C30.0823 125.843 30.1323 125.857 30.1589 125.87V125.55C30.1589 125.37 30.1456 125.197 30.1189 125.03C30.0923 124.857 30.0323 124.703 29.9389 124.57C29.8523 124.43 29.7256 124.32 29.5589 124.24C29.3989 124.153 29.1856 124.11 28.9189 124.11C28.5389 124.11 28.2556 124.137 28.0689 124.19C27.8823 124.243 27.7456 124.287 27.6589 124.32L27.5689 123.75C27.6823 123.697 27.8556 123.647 28.0889 123.6C28.3289 123.553 28.6156 123.53 28.9489 123.53Z" fill="#7A8D99"/>
<path d="M33.7768 128.91C33.5568 128.903 33.3635 128.873 33.1968 128.82C33.0368 128.773 32.9002 128.7 32.7868 128.6C32.6802 128.493 32.5968 128.36 32.5368 128.2C32.4835 128.033 32.4568 127.827 32.4568 127.58V121.18L33.1068 121.06V127.56C33.1068 127.72 33.1202 127.85 33.1468 127.95C33.1802 128.043 33.2268 128.12 33.2868 128.18C33.3468 128.233 33.4235 128.273 33.5168 128.3C33.6168 128.327 33.7335 128.35 33.8668 128.37L33.7768 128.91Z" fill="#7A8D99"/>
<path d="M35.6657 128.82H35.0157V123.65H35.6657V128.82ZM35.8157 122.09C35.8157 122.243 35.769 122.367 35.6757 122.46C35.5823 122.547 35.469 122.59 35.3357 122.59C35.2023 122.59 35.089 122.547 34.9957 122.46C34.9023 122.367 34.8557 122.243 34.8557 122.09C34.8557 121.937 34.9023 121.817 34.9957 121.73C35.089 121.637 35.2023 121.59 35.3357 121.59C35.469 121.59 35.5823 121.637 35.6757 121.73C35.769 121.817 35.8157 121.937 35.8157 122.09Z" fill="#7A8D99"/>
<path d="M38.4487 128.36C38.822 128.36 39.1287 128.3 39.3687 128.18C39.6154 128.053 39.7387 127.843 39.7387 127.55C39.7387 127.41 39.7154 127.29 39.6687 127.19C39.6287 127.09 39.5587 127 39.4587 126.92C39.3587 126.84 39.2254 126.763 39.0587 126.69C38.8987 126.617 38.6987 126.53 38.4587 126.43C38.2654 126.35 38.082 126.27 37.9087 126.19C37.7354 126.103 37.582 126.007 37.4487 125.9C37.3154 125.787 37.2087 125.653 37.1287 125.5C37.0487 125.347 37.0087 125.16 37.0087 124.94C37.0087 124.52 37.1654 124.18 37.4787 123.92C37.7987 123.66 38.2354 123.53 38.7887 123.53C39.142 123.53 39.432 123.56 39.6587 123.62C39.892 123.68 40.0554 123.733 40.1487 123.78L39.9987 124.36C39.9187 124.32 39.782 124.267 39.5887 124.2C39.402 124.133 39.1254 124.1 38.7587 124.1C38.612 124.1 38.472 124.117 38.3387 124.15C38.212 124.177 38.0987 124.223 37.9987 124.29C37.8987 124.35 37.8187 124.43 37.7587 124.53C37.6987 124.623 37.6687 124.74 37.6687 124.88C37.6687 125.02 37.6954 125.14 37.7487 125.24C37.802 125.34 37.8787 125.43 37.9787 125.51C38.0854 125.583 38.212 125.653 38.3587 125.72C38.512 125.787 38.6854 125.86 38.8787 125.94C39.0787 126.02 39.2687 126.103 39.4487 126.19C39.6354 126.27 39.7987 126.37 39.9387 126.49C40.0787 126.603 40.192 126.743 40.2787 126.91C40.3654 127.07 40.4087 127.273 40.4087 127.52C40.4087 127.987 40.232 128.34 39.8787 128.58C39.532 128.82 39.0554 128.94 38.4487 128.94C37.9954 128.94 37.6487 128.9 37.4087 128.82C37.1687 128.747 37.0087 128.69 36.9287 128.65L37.0987 128.06C37.1187 128.073 37.162 128.097 37.2287 128.13C37.2954 128.157 37.3854 128.19 37.4987 128.23C37.612 128.263 37.7454 128.293 37.8987 128.32C38.0587 128.347 38.242 128.36 38.4487 128.36Z" fill="#7A8D99"/>
<path d="M42.2761 123.65H44.3361V124.2H42.2761V126.95C42.2761 127.243 42.2994 127.483 42.3461 127.67C42.3994 127.85 42.4727 127.99 42.5661 128.09C42.6594 128.19 42.7727 128.257 42.9061 128.29C43.0394 128.323 43.1861 128.34 43.3461 128.34C43.6194 128.34 43.8394 128.31 44.0061 128.25C44.1727 128.183 44.3027 128.123 44.3961 128.07L44.5561 128.61C44.4627 128.67 44.2994 128.74 44.0661 128.82C43.8327 128.893 43.5794 128.93 43.3061 128.93C42.9861 128.93 42.7161 128.89 42.4961 128.81C42.2827 128.723 42.1094 128.597 41.9761 128.43C41.8494 128.257 41.7594 128.043 41.7061 127.79C41.6527 127.537 41.6261 127.237 41.6261 126.89V122.13L42.2761 122.01V123.65Z" fill="#7A8D99"/>
<path d="M47.1632 128.35C47.4166 128.35 47.6366 128.343 47.8232 128.33C48.0166 128.31 48.1799 128.287 48.3132 128.26V126.44C48.2399 126.407 48.1232 126.373 47.9632 126.34C47.8032 126.3 47.5832 126.28 47.3032 126.28C47.1432 126.28 46.9766 126.293 46.8032 126.32C46.6299 126.34 46.4699 126.39 46.3232 126.47C46.1766 126.543 46.0566 126.647 45.9632 126.78C45.8699 126.913 45.8232 127.09 45.8232 127.31C45.8232 127.503 45.8532 127.667 45.9132 127.8C45.9799 127.933 46.0699 128.04 46.1832 128.12C46.3032 128.2 46.4432 128.26 46.6032 128.3C46.7699 128.333 46.9566 128.35 47.1632 128.35ZM47.1032 123.53C47.4432 123.53 47.7299 123.58 47.9632 123.68C48.2032 123.773 48.3966 123.907 48.5432 124.08C48.6899 124.247 48.7966 124.447 48.8632 124.68C48.9299 124.913 48.9632 125.167 48.9632 125.44V128.7C48.8966 128.72 48.7999 128.743 48.6732 128.77C48.5466 128.79 48.3999 128.813 48.2332 128.84C48.0666 128.867 47.8799 128.887 47.6732 128.9C47.4732 128.92 47.2666 128.93 47.0532 128.93C46.7799 128.93 46.5266 128.9 46.2932 128.84C46.0666 128.78 45.8666 128.687 45.6932 128.56C45.5266 128.427 45.3932 128.26 45.2932 128.06C45.1999 127.853 45.1532 127.603 45.1532 127.31C45.1532 127.03 45.2066 126.79 45.3132 126.59C45.4199 126.39 45.5699 126.227 45.7632 126.1C45.9566 125.967 46.1866 125.87 46.4532 125.81C46.7199 125.75 47.0099 125.72 47.3232 125.72C47.4166 125.72 47.5132 125.727 47.6132 125.74C47.7199 125.747 47.8199 125.76 47.9132 125.78C48.0132 125.793 48.0966 125.81 48.1632 125.83C48.2366 125.843 48.2866 125.857 48.3132 125.87V125.55C48.3132 125.37 48.2999 125.197 48.2732 125.03C48.2466 124.857 48.1866 124.703 48.0932 124.57C48.0066 124.43 47.8799 124.32 47.7132 124.24C47.5532 124.153 47.3399 124.11 47.0732 124.11C46.6932 124.11 46.4099 124.137 46.2232 124.19C46.0366 124.243 45.8999 124.287 45.8132 124.32L45.7232 123.75C45.8366 123.697 46.0099 123.647 46.2432 123.6C46.4832 123.553 46.7699 123.53 47.1032 123.53Z" fill="#7A8D99"/>
<path d="M57.8065 128.66C57.6132 128.727 57.3665 128.79 57.0665 128.85C56.7665 128.91 56.3865 128.94 55.9265 128.94C55.5465 128.94 55.1999 128.88 54.8865 128.76C54.5799 128.633 54.3132 128.453 54.0865 128.22C53.8665 127.987 53.6932 127.703 53.5665 127.37C53.4465 127.037 53.3865 126.66 53.3865 126.24C53.3865 125.847 53.4365 125.487 53.5365 125.16C53.6432 124.827 53.7965 124.54 53.9965 124.3C54.1965 124.06 54.4399 123.873 54.7265 123.74C55.0199 123.607 55.3532 123.54 55.7265 123.54C56.0665 123.54 56.3599 123.59 56.6065 123.69C56.8599 123.783 57.0432 123.873 57.1565 123.96V121.18L57.8065 121.06V128.66ZM57.1565 124.59C57.0965 124.543 57.0199 124.493 56.9265 124.44C56.8399 124.387 56.7365 124.337 56.6165 124.29C56.4965 124.243 56.3665 124.207 56.2265 124.18C56.0865 124.147 55.9399 124.13 55.7865 124.13C55.4665 124.13 55.1965 124.187 54.9765 124.3C54.7632 124.413 54.5899 124.567 54.4565 124.76C54.3232 124.947 54.2265 125.17 54.1665 125.43C54.1065 125.683 54.0765 125.953 54.0765 126.24C54.0765 126.92 54.2465 127.443 54.5865 127.81C54.9265 128.17 55.3765 128.35 55.9365 128.35C56.2565 128.35 56.5132 128.337 56.7065 128.31C56.9065 128.277 57.0565 128.243 57.1565 128.21V124.59Z" fill="#7A8D99"/>
<path d="M59.2166 126.23C59.2166 125.777 59.2799 125.383 59.4066 125.05C59.5399 124.71 59.7099 124.427 59.9166 124.2C60.1299 123.973 60.3699 123.807 60.6366 123.7C60.9099 123.587 61.1899 123.53 61.4766 123.53C62.1099 123.53 62.6133 123.737 62.9866 124.15C63.3666 124.563 63.5566 125.2 63.5566 126.06C63.5566 126.113 63.5533 126.167 63.5466 126.22C63.5466 126.273 63.5433 126.323 63.5366 126.37H59.9066C59.9266 127.003 60.0833 127.49 60.3766 127.83C60.6699 128.17 61.1366 128.34 61.7766 128.34C62.1299 128.34 62.4099 128.307 62.6166 128.24C62.8233 128.173 62.9733 128.117 63.0666 128.07L63.1866 128.63C63.0933 128.683 62.9166 128.747 62.6566 128.82C62.4033 128.893 62.1033 128.93 61.7566 128.93C61.3033 128.93 60.9166 128.863 60.5966 128.73C60.2766 128.597 60.0133 128.41 59.8066 128.17C59.5999 127.93 59.4499 127.647 59.3566 127.32C59.2633 126.987 59.2166 126.623 59.2166 126.23ZM62.8866 125.82C62.8733 125.28 62.7466 124.86 62.5066 124.56C62.2666 124.26 61.9266 124.11 61.4866 124.11C61.2533 124.11 61.0433 124.157 60.8566 124.25C60.6766 124.343 60.5166 124.47 60.3766 124.63C60.2433 124.783 60.1366 124.963 60.0566 125.17C59.9833 125.377 59.9399 125.593 59.9266 125.82H62.8866Z" fill="#7A8D99"/>
<path d="M68.8105 128.38C69.3505 128.38 69.7705 128.283 70.0705 128.09C70.3705 127.89 70.5205 127.57 70.5205 127.13C70.5205 126.877 70.4705 126.667 70.3705 126.5C70.2772 126.327 70.1505 126.183 69.9905 126.07C69.8305 125.95 69.6472 125.85 69.4405 125.77C69.2338 125.683 69.0172 125.593 68.7905 125.5C68.5038 125.387 68.2472 125.27 68.0205 125.15C67.7938 125.03 67.6005 124.897 67.4405 124.75C67.2805 124.597 67.1572 124.423 67.0705 124.23C66.9905 124.037 66.9505 123.81 66.9505 123.55C66.9505 122.957 67.1472 122.507 67.5405 122.2C67.9338 121.893 68.4805 121.74 69.1805 121.74C69.3672 121.74 69.5505 121.753 69.7305 121.78C69.9105 121.807 70.0772 121.843 70.2305 121.89C70.3905 121.93 70.5338 121.977 70.6605 122.03C70.7938 122.083 70.9038 122.14 70.9905 122.2L70.7505 122.77C70.5572 122.637 70.3205 122.53 70.0405 122.45C69.7672 122.37 69.4705 122.33 69.1505 122.33C68.9305 122.33 68.7272 122.353 68.5405 122.4C68.3605 122.44 68.2038 122.51 68.0705 122.61C67.9372 122.703 67.8305 122.823 67.7505 122.97C67.6772 123.117 67.6405 123.293 67.6405 123.5C67.6405 123.713 67.6805 123.893 67.7605 124.04C67.8405 124.187 67.9505 124.313 68.0905 124.42C68.2372 124.527 68.4072 124.623 68.6005 124.71C68.7938 124.797 69.0038 124.887 69.2305 124.98C69.5038 125.093 69.7605 125.207 70.0005 125.32C70.2472 125.433 70.4605 125.567 70.6405 125.72C70.8205 125.873 70.9638 126.06 71.0705 126.28C71.1772 126.5 71.2305 126.77 71.2305 127.09C71.2305 127.717 71.0105 128.187 70.5705 128.5C70.1372 128.813 69.5472 128.97 68.8005 128.97C68.5338 128.97 68.2905 128.953 68.0705 128.92C67.8505 128.887 67.6538 128.847 67.4805 128.8C67.3072 128.747 67.1605 128.693 67.0405 128.64C66.9205 128.587 66.8272 128.54 66.7605 128.5L66.9805 127.91C67.0472 127.95 67.1372 127.997 67.2505 128.05C67.3638 128.103 67.4972 128.157 67.6505 128.21C67.8038 128.257 67.9772 128.297 68.1705 128.33C68.3638 128.363 68.5772 128.38 68.8105 128.38Z" fill="#7A8D99"/>
<path d="M73.0965 128.82H72.4465V123.65H73.0965V128.82ZM73.2465 122.09C73.2465 122.243 73.1999 122.367 73.1065 122.46C73.0132 122.547 72.8999 122.59 72.7665 122.59C72.6332 122.59 72.5199 122.547 72.4265 122.46C72.3332 122.367 72.2865 122.243 72.2865 122.09C72.2865 121.937 72.3332 121.817 72.4265 121.73C72.5199 121.637 72.6332 121.59 72.7665 121.59C72.8999 121.59 73.0132 121.637 73.1065 121.73C73.1999 121.817 73.2465 121.937 73.2465 122.09Z" fill="#7A8D99"/>
<path d="M75.8796 128.36C76.2529 128.36 76.5596 128.3 76.7996 128.18C77.0462 128.053 77.1696 127.843 77.1696 127.55C77.1696 127.41 77.1462 127.29 77.0996 127.19C77.0596 127.09 76.9896 127 76.8896 126.92C76.7896 126.84 76.6562 126.763 76.4896 126.69C76.3296 126.617 76.1296 126.53 75.8896 126.43C75.6962 126.35 75.5129 126.27 75.3396 126.19C75.1662 126.103 75.0129 126.007 74.8796 125.9C74.7462 125.787 74.6396 125.653 74.5596 125.5C74.4796 125.347 74.4396 125.16 74.4396 124.94C74.4396 124.52 74.5962 124.18 74.9096 123.92C75.2296 123.66 75.6662 123.53 76.2196 123.53C76.5729 123.53 76.8629 123.56 77.0896 123.62C77.3229 123.68 77.4862 123.733 77.5796 123.78L77.4296 124.36C77.3496 124.32 77.2129 124.267 77.0196 124.2C76.8329 124.133 76.5562 124.1 76.1896 124.1C76.0429 124.1 75.9029 124.117 75.7696 124.15C75.6429 124.177 75.5296 124.223 75.4296 124.29C75.3296 124.35 75.2496 124.43 75.1896 124.53C75.1296 124.623 75.0996 124.74 75.0996 124.88C75.0996 125.02 75.1262 125.14 75.1796 125.24C75.2329 125.34 75.3096 125.43 75.4096 125.51C75.5162 125.583 75.6429 125.653 75.7896 125.72C75.9429 125.787 76.1162 125.86 76.3096 125.94C76.5096 126.02 76.6996 126.103 76.8796 126.19C77.0662 126.27 77.2296 126.37 77.3696 126.49C77.5096 126.603 77.6229 126.743 77.7096 126.91C77.7962 127.07 77.8396 127.273 77.8396 127.52C77.8396 127.987 77.6629 128.34 77.3096 128.58C76.9629 128.82 76.4862 128.94 75.8796 128.94C75.4262 128.94 75.0796 128.9 74.8396 128.82C74.5996 128.747 74.4396 128.69 74.3596 128.65L74.5296 128.06C74.5496 128.073 74.5929 128.097 74.6596 128.13C74.7262 128.157 74.8162 128.19 74.9296 128.23C75.0429 128.263 75.1762 128.293 75.3296 128.32C75.4896 128.347 75.6729 128.36 75.8796 128.36Z" fill="#7A8D99"/>
<path d="M79.7069 123.65H81.7669V124.2H79.7069V126.95C79.7069 127.243 79.7302 127.483 79.7769 127.67C79.8302 127.85 79.9036 127.99 79.9969 128.09C80.0902 128.19 80.2036 128.257 80.3369 128.29C80.4702 128.323 80.6169 128.34 80.7769 128.34C81.0502 128.34 81.2702 128.31 81.4369 128.25C81.6036 128.183 81.7336 128.123 81.8269 128.07L81.9869 128.61C81.8936 128.67 81.7302 128.74 81.4969 128.82C81.2636 128.893 81.0102 128.93 80.7369 128.93C80.4169 128.93 80.1469 128.89 79.9269 128.81C79.7136 128.723 79.5402 128.597 79.4069 128.43C79.2802 128.257 79.1902 128.043 79.1369 127.79C79.0836 127.537 79.0569 127.237 79.0569 126.89V122.13L79.7069 122.01V123.65Z" fill="#7A8D99"/>
<path d="M82.6541 126.23C82.6541 125.777 82.7174 125.383 82.8441 125.05C82.9774 124.71 83.1474 124.427 83.3541 124.2C83.5674 123.973 83.8074 123.807 84.0741 123.7C84.3474 123.587 84.6274 123.53 84.9141 123.53C85.5474 123.53 86.0508 123.737 86.4241 124.15C86.8041 124.563 86.9941 125.2 86.9941 126.06C86.9941 126.113 86.9908 126.167 86.9841 126.22C86.9841 126.273 86.9808 126.323 86.9741 126.37H83.3441C83.3641 127.003 83.5208 127.49 83.8141 127.83C84.1074 128.17 84.5741 128.34 85.2141 128.34C85.5674 128.34 85.8474 128.307 86.0541 128.24C86.2608 128.173 86.4108 128.117 86.5041 128.07L86.6241 128.63C86.5308 128.683 86.3541 128.747 86.0941 128.82C85.8408 128.893 85.5408 128.93 85.1941 128.93C84.7408 128.93 84.3541 128.863 84.0341 128.73C83.7141 128.597 83.4508 128.41 83.2441 128.17C83.0374 127.93 82.8874 127.647 82.7941 127.32C82.7008 126.987 82.6541 126.623 82.6541 126.23ZM86.3241 125.82C86.3108 125.28 86.1841 124.86 85.9441 124.56C85.7041 124.26 85.3641 124.11 84.9241 124.11C84.6908 124.11 84.4808 124.157 84.2941 124.25C84.1141 124.343 83.9541 124.47 83.8141 124.63C83.6808 124.783 83.5741 124.963 83.4941 125.17C83.4208 125.377 83.3774 125.593 83.3641 125.82H86.3241Z" fill="#7A8D99"/>
<path d="M88.4426 123.83C88.636 123.777 88.886 123.717 89.1926 123.65C89.506 123.583 89.9093 123.55 90.4026 123.55C91.056 123.55 91.5293 123.74 91.8226 124.12C91.8559 124.093 91.9193 124.05 92.0126 123.99C92.1126 123.923 92.2359 123.857 92.3826 123.79C92.5293 123.723 92.6993 123.667 92.8926 123.62C93.0926 123.573 93.3126 123.55 93.5526 123.55C93.946 123.55 94.2626 123.61 94.5026 123.73C94.7493 123.843 94.9393 124.007 95.0726 124.22C95.206 124.427 95.296 124.677 95.3426 124.97C95.3893 125.263 95.4126 125.583 95.4126 125.93V128.82H94.7626V126.14C94.7626 125.8 94.7459 125.507 94.7126 125.26C94.6859 125.007 94.6259 124.8 94.5326 124.64C94.4459 124.473 94.3193 124.35 94.1526 124.27C93.986 124.183 93.7693 124.14 93.5026 124.14C93.3026 124.14 93.1193 124.16 92.9526 124.2C92.7926 124.233 92.6526 124.277 92.5326 124.33C92.4126 124.383 92.3126 124.437 92.2326 124.49C92.1593 124.543 92.1059 124.583 92.0726 124.61C92.1326 124.783 92.1759 124.98 92.2026 125.2C92.2359 125.413 92.2526 125.64 92.2526 125.88V128.82H91.6026V126.14C91.6026 125.8 91.586 125.507 91.5526 125.26C91.526 125.007 91.466 124.8 91.3726 124.64C91.2793 124.473 91.146 124.35 90.9726 124.27C90.806 124.183 90.5826 124.14 90.3026 124.14C89.9893 124.14 89.7226 124.157 89.5026 124.19C89.2893 124.223 89.1526 124.253 89.0926 124.28V128.82H88.4426V123.83Z" fill="#7A8D99"/>
<path d="M98.7054 128.35C98.9588 128.35 99.1788 128.343 99.3654 128.33C99.5588 128.31 99.7221 128.287 99.8554 128.26V126.44C99.7821 126.407 99.6654 126.373 99.5054 126.34C99.3454 126.3 99.1254 126.28 98.8454 126.28C98.6854 126.28 98.5188 126.293 98.3454 126.32C98.1721 126.34 98.0121 126.39 97.8654 126.47C97.7188 126.543 97.5988 126.647 97.5054 126.78C97.4121 126.913 97.3654 127.09 97.3654 127.31C97.3654 127.503 97.3954 127.667 97.4554 127.8C97.5221 127.933 97.6121 128.04 97.7254 128.12C97.8454 128.2 97.9854 128.26 98.1454 128.3C98.3121 128.333 98.4988 128.35 98.7054 128.35ZM98.6454 123.53C98.9854 123.53 99.2721 123.58 99.5054 123.68C99.7454 123.773 99.9388 123.907 100.085 124.08C100.232 124.247 100.339 124.447 100.405 124.68C100.472 124.913 100.505 125.167 100.505 125.44V128.7C100.439 128.72 100.342 128.743 100.215 128.77C100.089 128.79 99.9421 128.813 99.7754 128.84C99.6088 128.867 99.4221 128.887 99.2154 128.9C99.0154 128.92 98.8088 128.93 98.5954 128.93C98.3221 128.93 98.0688 128.9 97.8354 128.84C97.6088 128.78 97.4088 128.687 97.2354 128.56C97.0688 128.427 96.9354 128.26 96.8354 128.06C96.7421 127.853 96.6954 127.603 96.6954 127.31C96.6954 127.03 96.7488 126.79 96.8554 126.59C96.9621 126.39 97.1121 126.227 97.3054 126.1C97.4988 125.967 97.7288 125.87 97.9954 125.81C98.2621 125.75 98.5521 125.72 98.8654 125.72C98.9588 125.72 99.0554 125.727 99.1554 125.74C99.2621 125.747 99.3621 125.76 99.4554 125.78C99.5554 125.793 99.6388 125.81 99.7054 125.83C99.7788 125.843 99.8288 125.857 99.8554 125.87V125.55C99.8554 125.37 99.8421 125.197 99.8154 125.03C99.7888 124.857 99.7288 124.703 99.6354 124.57C99.5488 124.43 99.4221 124.32 99.2554 124.24C99.0954 124.153 98.8821 124.11 98.6154 124.11C98.2354 124.11 97.9521 124.137 97.7654 124.19C97.5788 124.243 97.4421 124.287 97.3554 124.32L97.2654 123.75C97.3788 123.697 97.5521 123.647 97.7854 123.6C98.0254 123.553 98.3121 123.53 98.6454 123.53Z" fill="#7A8D99"/>
<path d="M103.223 128.36C103.597 128.36 103.903 128.3 104.143 128.18C104.39 128.053 104.513 127.843 104.513 127.55C104.513 127.41 104.49 127.29 104.443 127.19C104.403 127.09 104.333 127 104.233 126.92C104.133 126.84 104 126.763 103.833 126.69C103.673 126.617 103.473 126.53 103.233 126.43C103.04 126.35 102.857 126.27 102.683 126.19C102.51 126.103 102.357 126.007 102.223 125.9C102.09 125.787 101.983 125.653 101.903 125.5C101.823 125.347 101.783 125.16 101.783 124.94C101.783 124.52 101.94 124.18 102.253 123.92C102.573 123.66 103.01 123.53 103.563 123.53C103.917 123.53 104.207 123.56 104.433 123.62C104.667 123.68 104.83 123.733 104.923 123.78L104.773 124.36C104.693 124.32 104.557 124.267 104.363 124.2C104.177 124.133 103.9 124.1 103.533 124.1C103.387 124.1 103.247 124.117 103.113 124.15C102.987 124.177 102.873 124.223 102.773 124.29C102.673 124.35 102.593 124.43 102.533 124.53C102.473 124.623 102.443 124.74 102.443 124.88C102.443 125.02 102.47 125.14 102.523 125.24C102.577 125.34 102.653 125.43 102.753 125.51C102.86 125.583 102.987 125.653 103.133 125.72C103.287 125.787 103.46 125.86 103.653 125.94C103.853 126.02 104.043 126.103 104.223 126.19C104.41 126.27 104.573 126.37 104.713 126.49C104.853 126.603 104.967 126.743 105.053 126.91C105.14 127.07 105.183 127.273 105.183 127.52C105.183 127.987 105.007 128.34 104.653 128.58C104.307 128.82 103.83 128.94 103.223 128.94C102.77 128.94 102.423 128.9 102.183 128.82C101.943 128.747 101.783 128.69 101.703 128.65L101.873 128.06C101.893 128.073 101.937 128.097 102.003 128.13C102.07 128.157 102.16 128.19 102.273 128.23C102.387 128.263 102.52 128.293 102.673 128.32C102.833 128.347 103.017 128.36 103.223 128.36Z" fill="#7A8D99"/>
<rect y="124.82" width="12" height="0.5" rx="0.25" fill="#FF8000"/>
<rect x="108" y="124.82" width="12" height="0.5" rx="0.25" fill="#FF8000"/>
<path d="M53.8256 117.6L60.2656 102.44H60.4056L66.8456 117.6H64.1656L59.6256 106.1L61.3056 104.96L56.1256 117.6H53.8256ZM57.8656 112.2H62.8456L63.6456 114.18H57.1656L57.8656 112.2Z" fill="#F2F2F2"/>
<path d="M67.57 102H69.81V117.6H67.57V102Z" fill="#F2F2F2"/>
<path d="M73.6025 109.14L73.8025 110.86L73.7225 110.72C74.0425 110.107 74.4758 109.627 75.0225 109.28C75.5825 108.933 76.2292 108.76 76.9625 108.76C77.4292 108.76 77.8425 108.833 78.2025 108.98C78.5625 109.127 78.8625 109.333 79.1025 109.6C79.3558 109.867 79.5225 110.2 79.6025 110.6L79.4825 110.64C79.8292 110.067 80.2759 109.613 80.8225 109.28C81.3692 108.933 81.9492 108.76 82.5625 108.76C83.3892 108.76 84.0492 109 84.5425 109.48C85.0359 109.947 85.2892 110.553 85.3025 111.3V117.6H83.0825V112.18C83.0692 111.767 82.9825 111.427 82.8225 111.16C82.6625 110.88 82.3625 110.727 81.9225 110.7C81.4425 110.7 81.0292 110.853 80.6825 111.16C80.3359 111.453 80.0625 111.84 79.8625 112.32C79.6759 112.787 79.5825 113.287 79.5825 113.82V117.6H77.3225V112.18C77.3092 111.767 77.2159 111.427 77.0425 111.16C76.8692 110.88 76.5625 110.727 76.1225 110.7C75.6558 110.7 75.2492 110.853 74.9025 111.16C74.5559 111.453 74.2892 111.84 74.1025 112.32C73.9158 112.787 73.8225 113.28 73.8225 113.8V117.6H71.5825V109.14H73.6025Z" fill="#F2F2F2"/>
<path d="M91.1194 117.82C90.1194 117.82 89.2661 117.627 88.5594 117.24C87.8527 116.853 87.3127 116.32 86.9394 115.64C86.5661 114.947 86.3794 114.167 86.3794 113.3C86.3794 112.447 86.5927 111.68 87.0194 111C87.4461 110.32 88.0194 109.78 88.7394 109.38C89.4727 108.967 90.2794 108.76 91.1594 108.76C92.3194 108.76 93.2727 109.1 94.0194 109.78C94.7794 110.447 95.2861 111.393 95.5394 112.62L88.7194 114.92L88.1994 113.66L93.5194 111.76L93.0594 112.02C92.9127 111.62 92.6727 111.273 92.3394 110.98C92.0194 110.687 91.5661 110.54 90.9794 110.54C90.5127 110.54 90.0994 110.653 89.7394 110.88C89.3794 111.093 89.0927 111.4 88.8794 111.8C88.6794 112.187 88.5794 112.647 88.5794 113.18C88.5794 113.727 88.6927 114.207 88.9194 114.62C89.1461 115.033 89.4527 115.353 89.8394 115.58C90.2261 115.793 90.6661 115.9 91.1594 115.9C91.5061 115.9 91.8394 115.84 92.1594 115.72C92.4794 115.6 92.7794 115.44 93.0594 115.24L94.0794 116.9C93.6394 117.18 93.1527 117.407 92.6194 117.58C92.0994 117.74 91.5994 117.82 91.1194 117.82Z" fill="#F2F2F2"/>
<path d="M96.4435 109.14H98.6835V117.6H96.4435V109.14Z" fill="#F2F2F2"/>
<path d="M103.916 117.82C103.116 117.82 102.403 117.633 101.776 117.26C101.149 116.887 100.656 116.353 100.296 115.66C99.936 114.967 99.756 114.16 99.756 113.24C99.756 112.293 99.9493 111.487 100.336 110.82C100.723 110.153 101.249 109.647 101.916 109.3C102.596 108.94 103.356 108.76 104.196 108.76C104.809 108.76 105.396 108.88 105.956 109.12C106.516 109.347 106.963 109.68 107.296 110.12L107.256 110.88V102H109.476V117.6H107.236V115.7L107.456 116.24C107.029 116.693 106.516 117.073 105.916 117.38C105.329 117.673 104.663 117.82 103.916 117.82ZM104.636 115.92C105.076 115.92 105.463 115.847 105.796 115.7C106.143 115.553 106.436 115.347 106.676 115.08C106.929 114.8 107.116 114.473 107.236 114.1V112.3C107.129 111.953 106.949 111.647 106.696 111.38C106.456 111.113 106.156 110.907 105.796 110.76C105.436 110.613 105.049 110.54 104.636 110.54C104.156 110.54 103.716 110.653 103.316 110.88C102.929 111.107 102.616 111.42 102.376 111.82C102.136 112.22 102.016 112.68 102.016 113.2C102.016 113.707 102.136 114.167 102.376 114.58C102.616 114.993 102.936 115.32 103.336 115.56C103.736 115.8 104.169 115.92 104.636 115.92Z" fill="#F2F2F2"/>
<path d="M114.825 117.82C114.025 117.82 113.299 117.653 112.645 117.32C112.005 116.987 111.499 116.493 111.125 115.84C110.752 115.173 110.565 114.353 110.565 113.38C110.565 112.42 110.759 111.6 111.145 110.92C111.545 110.227 112.065 109.693 112.705 109.32C113.359 108.947 114.065 108.76 114.825 108.76C115.639 108.76 116.292 108.92 116.785 109.24C117.292 109.56 117.685 109.94 117.965 110.38L117.845 110.7L118.065 109.14H120.125V117.6H117.885V115.54L118.105 116.08C118.052 116.16 117.945 116.293 117.785 116.48C117.625 116.653 117.405 116.847 117.125 117.06C116.845 117.273 116.512 117.453 116.125 117.6C115.752 117.747 115.319 117.82 114.825 117.82ZM115.445 115.98C115.845 115.98 116.205 115.907 116.525 115.76C116.859 115.613 117.139 115.407 117.365 115.14C117.605 114.873 117.779 114.553 117.885 114.18V112.34C117.779 111.993 117.605 111.693 117.365 111.44C117.125 111.173 116.832 110.967 116.485 110.82C116.152 110.673 115.779 110.6 115.365 110.6C114.912 110.6 114.492 110.713 114.105 110.94C113.719 111.167 113.405 111.48 113.165 111.88C112.939 112.28 112.825 112.74 112.825 113.26C112.825 113.767 112.945 114.227 113.185 114.64C113.425 115.053 113.745 115.38 114.145 115.62C114.545 115.86 114.979 115.98 115.445 115.98Z" fill="#F2F2F2"/>
<path d="M96.7435 105.26C96.4768 105.487 96.3435 105.773 96.3435 106.12C96.3435 106.453 96.4768 106.733 96.7435 106.96C97.0235 107.187 97.3235 107.3 97.6435 107.3C97.9635 107.3 98.2501 107.193 98.5035 106.98C98.7701 106.753 98.9035 106.467 98.9035 106.12C98.9035 105.773 98.7701 105.487 98.5035 105.26C98.2501 105.033 97.9635 104.92 97.6435 104.92C97.3235 104.92 97.0235 105.033 96.7435 105.26Z" fill="#FF8000"/>
<path d="M0 117.6L6 102.78H6.08L12.08 117.6H10.98L5.76 104.34L6.44 103.96L0.98 117.6H0ZM2.9 111.98H9.2L9.48 112.9H2.66L2.9 111.98Z" fill="#FF8000"/>
<path d="M13.5811 102.4H14.5211V117.6H13.5811V102.4Z" fill="#FF8000"/>
<path d="M16.7733 109.78H17.7133V117.6H16.7733V109.78Z" fill="#FF8000"/>
<path d="M21.8055 117.76C21.3521 117.76 20.8788 117.68 20.3855 117.52C19.8921 117.347 19.4921 117.073 19.1855 116.7L19.6255 116.08C19.8921 116.36 20.2055 116.587 20.5655 116.76C20.9388 116.92 21.3321 117 21.7455 117C22.0521 117 22.3388 116.96 22.6055 116.88C22.8855 116.787 23.1121 116.633 23.2855 116.42C23.4588 116.207 23.5455 115.92 23.5455 115.56C23.5455 115.187 23.4388 114.9 23.2255 114.7C23.0255 114.5 22.7655 114.34 22.4455 114.22C22.1388 114.087 21.8121 113.967 21.4655 113.86C20.8921 113.673 20.4188 113.42 20.0455 113.1C19.6855 112.78 19.5055 112.327 19.5055 111.74C19.5055 111.313 19.6055 110.94 19.8055 110.62C20.0188 110.3 20.3055 110.053 20.6655 109.88C21.0255 109.693 21.4321 109.6 21.8855 109.6C22.2988 109.6 22.7055 109.667 23.1055 109.8C23.5188 109.933 23.8921 110.16 24.2255 110.48L23.8055 111.14C23.5921 110.847 23.3055 110.647 22.9455 110.54C22.5988 110.433 22.2921 110.373 22.0255 110.36C21.7988 110.36 21.5588 110.407 21.3055 110.5C21.0655 110.593 20.8588 110.733 20.6855 110.92C20.5255 111.093 20.4455 111.327 20.4455 111.62C20.4455 111.927 20.5321 112.18 20.7055 112.38C20.8788 112.567 21.0988 112.72 21.3655 112.84C21.6455 112.96 21.9321 113.073 22.2255 113.18C22.6121 113.3 22.9721 113.447 23.3055 113.62C23.6521 113.78 23.9321 114 24.1455 114.28C24.3721 114.547 24.4855 114.907 24.4855 115.36C24.4855 115.813 24.3855 116.227 24.1855 116.6C23.9855 116.96 23.6855 117.247 23.2855 117.46C22.8988 117.66 22.4055 117.76 21.8055 117.76Z" fill="#FF8000"/>
<path d="M27.8687 117.76C27.4154 117.76 26.9421 117.68 26.4487 117.52C25.9554 117.347 25.5554 117.073 25.2487 116.7L25.6887 116.08C25.9554 116.36 26.2687 116.587 26.6287 116.76C27.0021 116.92 27.3954 117 27.8088 117C28.1154 117 28.4021 116.96 28.6687 116.88C28.9487 116.787 29.1754 116.633 29.3487 116.42C29.5221 116.207 29.6087 115.92 29.6087 115.56C29.6087 115.187 29.5021 114.9 29.2887 114.7C29.0887 114.5 28.8287 114.34 28.5087 114.22C28.2021 114.087 27.8754 113.967 27.5287 113.86C26.9554 113.673 26.4821 113.42 26.1087 113.1C25.7487 112.78 25.5687 112.327 25.5687 111.74C25.5687 111.313 25.6687 110.94 25.8687 110.62C26.0821 110.3 26.3688 110.053 26.7288 109.88C27.0888 109.693 27.4954 109.6 27.9487 109.6C28.3621 109.6 28.7687 109.667 29.1687 109.8C29.5821 109.933 29.9554 110.16 30.2887 110.48L29.8687 111.14C29.6554 110.847 29.3687 110.647 29.0087 110.54C28.6621 110.433 28.3554 110.373 28.0887 110.36C27.8621 110.36 27.6221 110.407 27.3687 110.5C27.1287 110.593 26.9221 110.733 26.7487 110.92C26.5887 111.093 26.5087 111.327 26.5087 111.62C26.5087 111.927 26.5954 112.18 26.7687 112.38C26.9421 112.567 27.1621 112.72 27.4287 112.84C27.7087 112.96 27.9954 113.073 28.2887 113.18C28.6754 113.3 29.0354 113.447 29.3687 113.62C29.7154 113.78 29.9954 114 30.2087 114.28C30.4354 114.547 30.5487 114.907 30.5487 115.36C30.5487 115.813 30.4487 116.227 30.2487 116.6C30.0487 116.96 29.7487 117.247 29.3487 117.46C28.9621 117.66 28.4687 117.76 27.8687 117.76Z" fill="#FF8000"/>
<path d="M31.332 113.64C31.332 112.88 31.512 112.187 31.872 111.56C32.2454 110.933 32.7454 110.44 33.372 110.08C34.012 109.707 34.7254 109.52 35.512 109.52C36.312 109.52 37.0254 109.707 37.652 110.08C38.2787 110.44 38.772 110.933 39.132 111.56C39.492 112.187 39.672 112.88 39.672 113.64C39.672 114.4 39.492 115.093 39.132 115.72C38.772 116.347 38.272 116.847 37.632 117.22C37.0054 117.58 36.2987 117.76 35.512 117.76C34.712 117.76 33.9987 117.587 33.372 117.24C32.7454 116.88 32.2454 116.393 31.872 115.78C31.512 115.153 31.332 114.44 31.332 113.64ZM32.272 113.66C32.272 114.273 32.412 114.833 32.692 115.34C32.9854 115.833 33.372 116.227 33.852 116.52C34.3454 116.813 34.892 116.96 35.492 116.96C36.092 116.96 36.632 116.813 37.112 116.52C37.6054 116.227 37.992 115.833 38.272 115.34C38.5654 114.833 38.712 114.273 38.712 113.66C38.712 113.047 38.5654 112.493 38.272 112C37.992 111.493 37.6054 111.093 37.112 110.8C36.632 110.493 36.092 110.34 35.492 110.34C34.8787 110.34 34.3254 110.5 33.832 110.82C33.352 111.127 32.972 111.533 32.692 112.04C32.412 112.547 32.272 113.087 32.272 113.66Z" fill="#FF8000"/>
<path d="M41.9831 109.78L42.0831 112.24L41.9631 111.76C42.1898 111.08 42.6165 110.547 43.2431 110.16C43.8831 109.76 44.5898 109.56 45.3631 109.56C46.0965 109.56 46.6898 109.78 47.1431 110.22C47.5965 110.647 47.8298 111.207 47.8431 111.9V117.6H46.8831V112.16C46.8698 111.653 46.7098 111.233 46.4031 110.9C46.0965 110.567 45.6498 110.393 45.0631 110.38C44.5431 110.38 44.0565 110.507 43.6031 110.76C43.1498 111.013 42.7831 111.367 42.5031 111.82C42.2365 112.273 42.1031 112.8 42.1031 113.4V117.6H41.1631V109.78H41.9831Z" fill="#FF8000"/>
<path d="M16.7933 106.44C16.6466 106.56 16.5733 106.713 16.5733 106.9C16.5733 107.087 16.6466 107.247 16.7933 107.38C16.94 107.513 17.1 107.58 17.2733 107.58C17.46 107.58 17.62 107.52 17.7533 107.4C17.8866 107.267 17.9533 107.1 17.9533 106.9C17.9533 106.713 17.8866 106.56 17.7533 106.44C17.62 106.307 17.46 106.24 17.2733 106.24C17.1 106.24 16.94 106.307 16.7933 106.44Z" fill="#F2F2F2"/>
</svg>
